<svg xmlns="http://www.w3.org/2000/svg" viewBox="0 0 32 32"><path d="M23.3 7l-2.1 1.2s0 .1.1.1l2.1-.9c0 .1.1.1.1.2-.3.2-.6.5-1 .7-2.1 1.4-4.4 2.6-6.1 4.3-1.9 1.9-3.9 3.8-5.2 6.3-.5.9-.7 1.9-.3 2.9.3.7.8 1.1 1.5.9 2.1-.5 3.9-1.4 5.1-3.2.4-.5.6-1.2.6-1.9.1-1.1-.7-1.9-1.8-1.6-1 .3-2 .8-2.9 1.2.3-.4.8-.9 1.2-1.3l-.1-.1c-.6.4-1.1.8-1.7 1.2.7-1.8 3.6-3 5.4-2.4 1.4.5 2.1 2.3 1.8 3.5-.5 2.5-1.7 4.7-4.1 5.9-.9.5-2.1.6-3.2.8-.5.2-1.1.2-1.8.2-.6 0-1-.3-1.4-.8-1.7-1.8-.9-3.5-.2-5.3 1.5-3.4 4-5.8 6.7-8.2 1-.8 2-1.6 3-2.3 1.3-.9 2.6-1.6 4.3-1.4z"/></svg>