<?xml version="1.0" encoding="utf-8"?>
<!-- Generator: Adobe Illustrator 22.0.0, SVG Export Plug-In . SVG Version: 6.00 Build 0)  -->
<svg version="1.1"
	 id="svg2" xmlns:cc="http://creativecommons.org/ns#" xmlns:dc="http://purl.org/dc/elements/1.1/" xmlns:rdf="http://www.w3.org/1999/02/22-rdf-syntax-ns#" xmlns:svg="http://www.w3.org/2000/svg"
	 xmlns="http://www.w3.org/2000/svg" xmlns:xlink="http://www.w3.org/1999/xlink" x="0px" y="0px" viewBox="0 0 32 32"
	 style="enable-background:new 0 0 32 32;" xml:space="preserve">
<style type="text/css">
	.st0{fill:#231F20;}
</style>
<g>
	<path id="path10" class="st0" d="M15.7,16.4c-0.1,0.2-0.2,0.4-0.3,0.6c-0.4,0.8-0.8,1.8-0.9,2.5c-0.1,0.2-0.1,0.5-0.1,0.8
		c0,0.1,0,0.3,0,0.4c0.5,0.2,1.1,0.3,1.6,0.3c0.5,0,1-0.1,1.5-0.2c-0.1-0.1-0.2-0.2-0.3-0.3C16.7,19.6,16.3,18.4,15.7,16.4"/>
	<path id="path12" class="st0" d="M13.4,12.3c-1.2,0.9-2,2.3-2,3.9c0,1.6,0.8,3,2,3.9c0.3-1.2,1-2.3,2.1-4.6
		c-0.1-0.2-0.1-0.4-0.2-0.6c-0.3-0.8-0.7-1.6-1.1-2.1C13.9,12.7,13.6,12.5,13.4,12.3"/>
	<path id="path14" class="st0" d="M20.3,21.7c-0.6-0.1-1.2-0.2-1.6-0.3c-0.8,0.4-1.6,0.6-2.5,0.6c-3.2,0-5.7-2.6-5.7-5.7
		c0-1.7,0.8-3.2,1.9-4.3c-0.3-0.1-0.7-0.1-1-0.1c-1.7,0-3.4,0.9-4.2,3.5c-0.1,0.4-0.1,0.6-0.1,1c0,5,4,9,9,9c3,0,5.7-1.5,7.4-3.8
		c-0.9,0.2-1.7,0.3-2.5,0.3C20.7,21.7,20.5,21.7,20.3,21.7"/>
	<path id="path18" class="st0" d="M16.1,7.2c-3,0-5.7,1.5-7.3,3.8c0.8-0.5,1.7-0.7,2.5-0.7c1,0,1.9,0.3,2.3,0.5
		c0.1,0.1,0.2,0.1,0.3,0.2c0.7-0.3,1.5-0.5,2.3-0.5c3.2,0,5.7,2.6,5.7,5.7h0c0,1.6-0.7,3-1.7,4.1c0.3,0,0.5,0,0.8,0
		c1,0,2.1-0.2,2.9-0.9c0.5-0.4,1-1.1,1.2-2.1c0-0.4,0.1-0.8,0.1-1.1C25.1,11.2,21.1,7.2,16.1,7.2"/>
</g>
</svg>
