<?xml version="1.0" encoding="utf-8"?>
<!-- Generator: Adobe Illustrator 22.0.0, SVG Export Plug-In . SVG Version: 6.00 Build 0)  -->
<svg version="1.1" id="Layer_1" xmlns="http://www.w3.org/2000/svg" xmlns:xlink="http://www.w3.org/1999/xlink" x="0px" y="0px"
	 viewBox="0 0 32 32" style="enable-background:new 0 0 32 32;" xml:space="preserve">
<style type="text/css">
	.st0{fill:#8B8B8B;}
	.st1{fill:#231F20;}
</style>
<path class="st0" d="M-747.4,188.4c-0.1-0.3-0.2-0.7-0.3-1c0.3,0.1,0.7,0.2,1,0.4C-747,188-747.2,188.2-747.4,188.4z"/>
<g>
	<path class="st1" d="M12.4,16.8c1.2,0.7,2.4,1.4,3.6,2.1c0,0,0,0,0.1,0c1.8-1.1,3.6-2.2,5.5-3.2c0,0,0,0,0-0.1
		c-0.5-0.9-1-1.7-1.6-2.6c-1.3-2.2-2.6-4.3-3.9-6.5c0,0,0,0,0,0c0,0,0,0,0,0c0,0,0,0,0,0c-0.1,0.2-0.2,0.3-0.3,0.5
		c-0.6,1-1.2,1.9-1.7,2.9c-0.5,0.9-1.1,1.8-1.6,2.7c-0.6,1-1.2,2-1.8,2.9c0,0,0,0,0,0.1c0,0,0,0,0,0c0,0,0,0,0,0c0,0,0,0,0,0
		C11.1,16.1,11.8,16.4,12.4,16.8z"/>
	<path class="st1" d="M16.7,20.6c-0.2,0.1-0.5,0.3-0.7,0.4c0,0,0,0,0,0c0,0,0,0,0,0c0,0,0,0,0,0c-0.8-0.5-1.6-0.9-2.4-1.4
		c-0.9-0.5-1.8-1.1-2.7-1.6c-0.1-0.1-0.2-0.1-0.4-0.2c0,0,0,0,0,0c0,0,0,0,0,0c0.3,0.4,0.5,0.7,0.8,1.1c0.7,1,1.4,2,2.2,3
		c0.8,1.2,1.7,2.3,2.5,3.5c0,0,0,0.1,0.1,0.1c0,0,0,0,0,0c1.2-1.7,2.5-3.5,3.7-5.2c0.6-0.8,1.2-1.7,1.8-2.5c0,0,0,0,0,0c0,0,0,0,0,0
		C19.9,18.7,18.3,19.6,16.7,20.6z"/>
</g>
</svg>
