<svg xmlns="http://www.w3.org/2000/svg" viewBox="0 0 32 32"><path fill="#529BBA" d="M11.3 25c.5-.1.8.4 1.3.4-.2.5-1.3.7-1.6.3-.2-.3.1-.5.3-.7zm8.1.5c.4-.2.8-.6 1.3-.6.2.2.5.4.4.7-.1.3-.4.3-.7.3-.4 0-.8 0-1-.4zM9.3 17.9c.6.3.5.8.5 1.3 0 .3-.3.4-.6.4-.6-.6-.5-1.1.1-1.7zm13.5 1.7c-.3 0-.6-.1-.6-.4 0-.5-.1-1 .5-1.3.6.6.7 1.1.1 1.7z"/><path fill="#529BBA" d="M23.6 8.5c-.3-.4-.7-.5-1.2-.3-.5.1-.8 0-1.2-.3-2.8-2.4-7.3-2.5-10.2-.2-.5.4-1 .6-1.7.5-.7-.2-1.3.5-1.1 1.1.1.4.5.6.8.8.2.1.4.3.4.6-.1 2.5.3 5-.1 7.5.2.5.4 1-.1 1.5 0 .5.1 1.1.1 1.6.2 1.3.6 2.4 1.6 3.3.2.1.4.3.4.5.4.1.8.6 1.3.4 2.2.5 4.5.6 6.7 0 .5 0 .9-.3 1.3-.6 1.6-1.4 2-3.3 2.1-5.3-.5-.5-.3-1-.1-1.5 0-1.2-.2-2.3-.2-3.5.1-1.1.3-2.2.1-3.4-.1-.6.1-1 .6-1.4.8-.3.9-.8.5-1.3zM12.9 14c-1 .1-2-1-2-2.1 0-1.4 1-2.5 2.3-2.5 1.3 0 2 .8 2 2.1.1 1.6-1.1 2.4-2.3 2.5zm6.2 0c-1.1-.1-2.4-.8-2.3-2.5 0-1.3.8-2.1 2-2.1s2.3 1.1 2.3 2.5c0 1-1 2.1-2 2.1z"/><g fill="#FFF"><path d="M16.8 14.1c.1 0 .2.1.3.1.2.2.6.4.5.8-.1.4-.5.5-.9.6-.5.1-1 0-1.4 0-.4-.1-.8-.2-.8-.8 0-.4.3-.6.8-.7.3.7 1.1.6 1.5 0z"/><path d="M16.8 14.1c.1.6-.3.7-.7.7-.5 0-1 0-.9-.7.5-.5 1.1-.5 1.6 0z"/></g></svg>