<svg xmlns="http://www.w3.org/2000/svg" viewBox="0 0 32 32"><path d="M18.5 3.5s.1 0 0 0c.4.5.5.9.6 1.4v.4c0 .4-.1.8-.2 1.2-.2.6-.6 1.2-1 1.7-.3.3-.6.7-.9 1-.4.4-.8.7-1.2 1-.5.4-.9.8-1.2 1.2-.2.3-.4.7-.5 1-.1.6-.1 1.1 0 1.6.1.4.3.8.5 1.1.3.4.6.9.9 1.3.2.3.3.5.5.8-.1 0-.1-.1-.2-.1-.4-.3-.7-.6-1-1-.5-.5-1-1-1.4-1.6-.3-.4-.5-.7-.6-1.2-.1-.2-.1-.4-.1-.6 0-.5.1-1 .5-1.4.3-.5.8-.9 1.2-1.2.6-.5 1.2-.9 1.7-1.4.3-.2.6-.5.9-.7.4-.4.7-.7 1-1.2.3-.5.5-1 .6-1.6 0-.2.1-.4 0-.7 0-.3 0-.7-.1-1zM6.8 26c.1-.2.2-.3.4-.4.3-.2.6-.3.9-.5.5-.2 1.1-.4 1.7-.5.3 0 .6-.1.8 0 .1 0 .2 0 .3.1-.5 0-1 .1-1.4.3-.2.1-.5.2-.7.3-.1 0-.1.1-.2.1-.1.1-.1.2 0 .3.1 0 .1.1.2.1.3.1.7.2 1.1.3.5.1 1.1.2 1.6.2s.9.1 1.4.1c1.1.1 2.1.1 3.2.1h1.3c.4 0 .7 0 1.1-.1.5 0 1-.1 1.6-.1.5-.1 1.1-.1 1.6-.2s1-.2 1.5-.4c.2-.1.3-.1.5-.2.1 0 .1-.1.2-.2s.1-.3 0-.5v-.1c.1 0 .2.1.2.1.2.2.3.4 0 .6-.1.1-.3.2-.4.3-.4.2-.8.4-1.2.5-.7.2-1.4.3-2 .4-.5.1-1.1.2-1.6.2-.3 0-.7.1-1 .1-.5 0-1.1.1-1.6.1h-2.2c-.5 0-1 0-1.4-.1-.5 0-.9-.1-1.4-.1-.5 0-1.1-.1-1.6-.2s-1.1-.1-1.6-.2c-.3 0-.5-.1-.8-.2-.1 0-.2-.1-.3-.2l-.1-.1c-.1.2-.1.2-.1.1zm8.5 2.5h-.4c-.5 0-1 0-1.5-.1-.6 0-1.1-.1-1.6-.2-.4-.1-.9-.2-1.3-.3-.1 0-.2-.1-.3-.1h.2c.5.1 1.1.1 1.6.2.4 0 .8.1 1.1.1.9.1 1.9.1 2.8.1.5 0 1.1 0 1.6-.1.4 0 .9-.1 1.3-.1 1-.1 2-.2 2.9-.4.7-.1 1.4-.3 2.1-.6.2-.1.4-.1.5-.2.3-.2.5-.3.7-.5v.1c-.1.2-.2.4-.3.5-.2.2-.4.4-.7.5-.4.2-.8.4-1.2.5-.6.2-1.2.3-1.9.4-.5.1-.9.1-1.4.2-.3 0-.6 0-.9.1-.5 0-.9.1-1.4.1h-.1c-.4-.2-1.1-.2-1.8-.2z"/><path d="M21.6 8.6c0 .1-.1.1-.2.1-.6.3-1.1.7-1.6 1-.4.3-.9.6-1.3 1-.3.2-.5.5-.7.8-.2.2-.3.4-.3.7-.1.3 0 .6.1.8.1.3.3.6.5.9.1.2.3.4.4.6.2.3.3.6.3 1 0 .2 0 .5-.1.7-.1.3-.3.5-.5.7-.4.4-.9.8-1.4 1.1l.1-.1.1-.1c.2-.2.4-.5.5-.8.2-.5.1-.9-.1-1.3-.1-.2-.2-.3-.4-.5-.3-.4-.5-.7-.7-1.1-.1-.3-.2-.5-.2-.8-.1-.5 0-.9.2-1.4.2-.4.5-.8.9-1.1.5-.4 1-.7 1.5-1 .6-.3 1.3-.6 2-.9.3-.1.6-.2.8-.3h.1zM19.9 24c-.2.1-.3.1-.5.2-.7.3-1.5.4-2.2.5-.4 0-.7.1-1.1.1h-1c-.8 0-1.6-.1-2.3-.3-.3-.1-.6-.2-.9-.4-.1-.1-.2-.1-.3-.2l-.1-.1c-.1-.2-.1-.3 0-.5l.2-.2c.3-.2.5-.3.8-.3l-.1.1-.1.1c-.1.1-.1.2.1.3.1.1.2.1.3.1.2.1.4.1.6.1.3 0 .7.1 1 .1h1.6c.4 0 .8-.1 1.3-.1.4-.1.8-.1 1.2-.2h.1c.5.3 1 .5 1.4.7z"/><path d="M21.3 18.2c-.2.1-.5.2-.7.4-.1 0-.2.1-.2.1-.1.1-.2.1-.3.1-.4.1-.9.2-1.3.3-.4.1-.9.1-1.3.2-.3 0-.7.1-1 .1-.4 0-.8.1-1.2.1h-2.7c-.5 0-1.1-.1-1.6-.1-.4 0-.9-.1-1.3-.2-.2 0-.3-.1-.5-.1-.1 0-.2-.1-.3-.1-.1-.1-.1-.2 0-.4.1-.1.2-.2.3-.2.4-.2.7-.3 1.1-.5.5-.2 1.1-.3 1.7-.4.4-.1.8-.1 1.2-.1h-.1c-.6.1-1.1.3-1.7.5-.2.1-.4.2-.5.3-.1 0-.1.1-.2.1-.1.1-.1.2 0 .3.1 0 .1.1.2.1.2.1.4.1.6.1.4.1.9.1 1.3.1h1.8c.6 0 1.1 0 1.7-.1.3 0 .5 0 .8-.1.3 0 .7-.1 1-.1.3 0 .7-.1 1-.1.4-.1.8-.1 1.2-.2.3 0 .6-.1 1-.1zm-9.2 1.9c0 .1-.1.1 0 0-.1.2-.2.2-.2.3-.1.2 0 .3.1.4.1.1.2.1.3.1.2.1.4.1.6.1.4 0 .8.1 1.2.1h2.4c.6 0 1.3-.1 1.9-.2.3-.1.7-.1 1-.2h.1l.9.6h.1c-.1 0-.2.1-.3.1-.6.2-1.2.3-1.9.4-.4.1-.9.1-1.3.2-.7.1-1.4.1-2.1.1-.5 0-.9 0-1.4-.1-.5-.1-1-.1-1.5-.3-.3-.1-.5-.2-.7-.3-.1 0-.2-.1-.2-.2-.1-.2-.1-.3 0-.5.1-.1.2-.2.3-.2 0-.1.3-.3.7-.4zm9.2 1.8c0-.1.1-.1.2-.2.5-.3 1-.6 1.4-.9.4-.3.7-.6 1-1.1.1-.2.2-.5.3-.7.1-.6-.1-1-.5-1.4-.3-.2-.6-.4-1-.4-.1 0-.3 0-.4.1-.1 0-.2.1-.4.1v-.1c.1-.1.2-.2.4-.2.3-.1.6-.2 1-.2.5 0 .9.2 1.3.5s.6.6.6 1.1c0 .3 0 .6-.1.9-.2.4-.4.7-.7.9-.5.4-1 .7-1.6 1-.5.3-1 .5-1.5.6zm.3-13.3zm-9.5 11.5zm3.9-2.9zm7.7 7.7z"/></svg>