<?xml version="1.0" encoding="utf-8"?>
<!-- Generator: Adobe Illustrator 22.0.0, SVG Export Plug-In . SVG Version: 6.00 Build 0)  -->
<svg version="1.1" id="Layer_1" xmlns="http://www.w3.org/2000/svg" xmlns:xlink="http://www.w3.org/1999/xlink" x="0px" y="0px"
	 viewBox="0 0 32 32" style="enable-background:new 0 0 32 32;" xml:space="preserve">
<style type="text/css">
	.st0{fill:#231F20;}
</style>
<g>
	<path class="st0" d="M24,21.4L16,26v-3.6l5-2.8L24,21.4z M24.6,20.9v-9.6l-3,1.7v6.2L24.6,20.9z M7.2,21.4l8.1,4.6v-3.6l-5-2.8
		L7.2,21.4z M6.6,20.9v-9.6l3,1.7v6.2C9.6,19.2,6.6,20.9,6.6,20.9z M6.9,10.7L15.2,6v3.4l-5.3,2.9l0,0L6.9,10.7L6.9,10.7z
		 M24.3,10.7L16,6v3.4l5.3,2.9l0,0L24.3,10.7L24.3,10.7z"/>
	<path class="st0" d="M15.2,21.6l-5-2.7v-5.4l5,2.9V21.6z M16,21.6l5-2.7v-5.4l-5,2.9V21.6z M10.6,12.8l5-2.7l5,2.7l-5,2.9
		L10.6,12.8z"/>
</g>
</svg>
