<?xml version="1.0" ?><svg viewBox="0 0 512 512"  xml:space="preserve"><g transform="translate(136.1786,108.25001)"><path d="m 116.06612,-20.980825 c -0.4553,-0.01 -0.8935,0.078 -1.2847,0.2767 -21.947301,13.4899974 -53.975801,32.266097 -61.563001,55.248697 -2.3728,7.6106 -1.3233,10.427 -0.029,16.5616 2.1459,7.3813 6.6296,17.05821 11.6209,25.09961 3.233,5.2087 13.8814,18.9531 14.6843,18.9531 14.7491,-9.3615 30.538501,-20.1822 42.412311,-31.8982 l 0,-39.37851 c 0,-33.3048956 -0.3501,-39.883097 -2.25311,-42.599997 -0.7159,-1.3635 -2.2214,-2.2416 -3.587,-2.263 z M 47.427719,45.325472 c -0.7764,0.016 -1.998,2.9413 -2.7174,6.5021 -1.8659,9.2336 -10.1719,42.11581 -13.8641,54.902908 -2.9975,10.381 -4.0588,21.5286 -2.3222,24.3385 1.287,2.0825 23.1157,9.9767 54.3494,19.6548 15.1563,4.6963 17.550401,4.6029 20.603401,-0.7609 4.651,-8.172 5.3747,-6.7537 -23.805101,-46.6022 -23.0325,-31.453698 -26.0886,-36.772798 -29.2202,-50.841408 -0.8849,-3.9752 -2.2472,-7.2107 -3.0238,-7.1938 z m 159.184411,9.6445 c -1.0974,-0.022 -2.3919,0.041 -3.7452,0.1977 -9.3581,1.0788 -43.1915,3.3348 -56.4936,3.7747 -10.7993,0.3571 -21.7384,2.7965 -23.8743,5.31651 -1.5827,1.8674 -2.3446,25.0629 -1.8973,57.758498 0.2171,15.8657 1.0504,18.1123 7.0952,19.3582 9.2092,1.8982 8.0862,3.0289 36.9674,-37.0365 22.7966,-31.624898 26.907,-36.173598 39.3192,-43.499308 3.5073,-2.07 6.1654,-4.3657 5.9094,-5.099 -0.1599,-0.4583 -1.4518,-0.7322 -3.2808,-0.7708 z m 15.3265,2.9448 c -7.9714,0.095 -10.3267,1.963 -15.7612,5.08901 -6.3569,4.3218 -14.1817,11.5731 -20.2873,18.8049 -3.9545,4.6844 -13.7266,19.059198 -13.4785,19.822698 13.461,11.1344 28.6282,22.813 43.4399,30.4851 l 37.4517,-12.1742 c 31.6748,-10.2919 37.81751,-12.6574 39.81341,-15.3069 1.0755,-1.1022 1.4492,-2.8053 1.0475,-4.1107 -0.1338,-0.4352 -0.3519,-0.825798 -0.6622,-1.136398 -19.61171,-16.7045 -47.36091,-41.35961 -71.56331,-41.47351 z M -49.45249,107.49138 c -0.7359,0 -1.3028,0.085 -1.7985,0.2371 -1.518,0.2595 -2.8187,1.4252 -3.261,2.7173 -0.1475,0.4309 -0.2068,0.8709 -0.1384,1.3045 6.0477,25.0418 14.005601,61.3069 33.518909,75.6248 6.5048,4.6084 9.5074,4.4829 15.7414997,5.1483 7.6831,0.2401 18.2710003,-1.0384 27.4613003,-3.3006 5.9527,-1.4652 22.3217,-7.3394 22.5698,-8.1029 -4.3457,-16.9202 -9.7603,-35.2861 -17.2337,-50.1991 l -37.4516,-12.1644 c -26.725608,-8.6836 -35.434609,-11.2577 -39.408309,-11.265 z m 264.01942,25.5836 c -4.4298,-0.018 -25.841,6.2561 -54.8632,16.1269 -15.0222,5.1093 -16.8989,6.5938 -16.216,12.7277 1.0406,9.3451 -0.3776,8.6196 46.6516,23.7062 37.1217,11.9084 42.7166,14.4221 53.5193,23.9632 3.0525,2.6959 6.0519,4.5117 6.6702,4.0416 0.6183,-0.47 -0.1096,-3.5542 -1.6206,-6.8579 -3.9179,-8.5668 -16.5289,-40.0556 -21.0579,-52.5706 -3.6768,-10.1605 -9.3648,-19.7956 -12.4213,-21.0482 -0.1416,-0.058 -0.3668,-0.088 -0.6621,-0.089 z m -117.977711,37.6198 c -5.4728,-0.013 -16.2363,3.6207 -44.0922,12.7867 -37.0316,12.1856 -43.0354003,13.4446 -57.3830003,12.0755 -4.0542,-0.3868 -7.5529997,-0.091 -7.7769997,0.6522 -0.2239,0.7436 2.1818,2.8104 5.3460997,4.5951 8.20509998,4.6278 36.9060003,22.6862 47.9263003,30.149 8.9466,6.05881 19.2223,10.51681 22.4314,9.73351 2.3782,-0.5805 16.6291,-18.89971 35.4851,-45.61391 9.150101,-12.9633 9.800501,-15.2716 5.642601,-19.8326 -2.5735,-2.823 -3.8348,-4.5365 -7.579301,-4.5455 z m 35.880511,11.3539 c -1.1259,0.034 -2.3,0.4311 -3.7057,1.0673 -8.5662,3.8774 -8.3172,2.3017 -8.1326,51.69121 0.1457,38.9847 -0.5095,45.0897 -6.24521,58.3119 -1.6207,3.7363 -2.4267,7.1465 -1.7887,7.5892 0.6381,0.4428 3.3529,-1.1983 6.028,-3.6562 6.93671,-6.3734 32.97631,-28.1011 43.47941,-36.2758 8.527,-6.6365 15.9395,-15.0267 16.1862,-18.3206 0.1828,-2.4412 -12.832,-21.65891 -32.4119,-47.84721 -7.1259,-9.5311 -10.0319,-12.6632 -13.4095,-12.5598 z m 62.7389,10.0892 c -0.051,0.01 -0.088,0.015 -0.1087,0.029 -6.4298,16.2429 -12.844,34.285 -15.5636,50.74261 l 23.1429,31.8586 c 19.5761,26.9441 23.7319,32.0539 26.8684,33.1334 1.3805,0.6822 3.112,0.5088 4.2294,-0.2768 0.3726,-0.2616 0.6799,-0.5872 0.8795,-0.9782 9.8265,-23.814 24.703,-57.8288 17.3325,-80.88181 -2.5539,-7.5519 -5.0613,-9.2167 -9.7138,-13.4193 -6.0745,-4.7103 -15.3863,-9.897 -24.1509,-13.4688 -5.4998,-2.2413 -21.3406,-6.8811 -22.9157,-6.7394 z M 89.069219,240.63739 c -9.0244,0.044 -17.9304,0.539 -26.1766,1.7885 l -23.1528,31.8588 c -19.5761,26.9442 -23.1547,32.4748 -23.2122,35.7915 -0.2223,1.5237 0.4788,3.113 1.5712,3.933 0.364,0.2734 0.7721,0.4645 1.2055,0.5336 25.6851,1.9866 62.6281,5.6253 82.275101,-8.5082 6.3931,-4.7625 7.2039,-7.6663 9.7632,-13.3898 2.6026,-7.2327 4.6573,-17.6956 5.346,-27.1351 0.446,-6.1142 -0.092,-23.4912 -0.7411,-23.9633 -8.7175,-0.5477 -17.853801,-0.9528 -26.878301,-0.909 z" /></g></svg>