<svg xmlns="http://www.w3.org/2000/svg" xmlns:xlink="http://www.w3.org/1999/xlink" viewBox="0 0 160.02 64"><defs><clipPath id="clip-path"><path d="M2.53,16.48l24.28-14a2,2,0,0,1,2,0l24.29,14a2,2,0,0,1,1,1.76V46.29a2,2,0,0,1-1,1.76l-24.29,14a2,2,0,0,1-2,0l-24.28-14a2,2,0,0,1-1-1.76v-28A2,2,0,0,1,2.53,16.48Z" style="fill:none;stroke:#215adc;stroke-width:2px;clip-rule:evenodd"/></clipPath></defs><title>New Symbol (2)</title><g id="Layer_2" data-name="Layer 2"><g id="Layer_1-2" data-name="Layer 1"><g id="New_Symbol" data-name="New Symbol"><g style="clip-path:url(#clip-path)"><polygon points="40.94 56.21 39.99 56.76 39.99 64 41.99 64 41.99 56.82 40.94 56.21" style="fill:#215adc"/><polygon points="40.94 8.32 41.99 7.71 41.99 0 39.99 0 39.99 7.77 40.94 8.32" style="fill:#215adc"/><polygon points="40.94 25.82 39.99 26.37 39.99 38.16 40.94 38.71 41.99 38.1 41.99 26.43 40.94 25.82" style="fill:#215adc"/><polygon points="40.94 41.02 39.99 41.56 39.99 53.35 40.94 53.9 41.99 53.3 41.99 41.62 40.94 41.02" style="fill:#215adc"/><polygon points="40.94 10.63 39.99 11.17 39.99 22.96 40.94 23.51 41.99 22.91 41.99 11.23 40.94 10.63" style="fill:#215adc"/><polygon points="1.46 33.42 0.51 33.97 0.51 45.76 1.46 46.3 2.51 45.7 2.51 34.02 1.46 33.42" style="fill:#215adc"/><polygon points="1.46 48.61 0.51 49.16 0.51 62.05 2.51 60.89 2.51 49.22 1.46 48.61" style="fill:#215adc"/><polygon points="0.51 2.48 0.51 15.37 1.46 15.91 2.51 15.31 2.51 3.63 0.51 2.48" style="fill:#215adc"/><polygon points="1.13 64 2.51 64 2.51 63.2 1.13 64" style="fill:#215adc"/><polygon points="2.51 1.32 2.51 0 0.51 0 0.51 0.17 2.51 1.32" style="fill:#215adc"/><polygon points="1.46 18.22 0.51 18.77 0.51 30.56 1.46 31.11 2.51 30.5 2.51 18.83 1.46 18.22" style="fill:#215adc"/><polygon points="14.62 10.63 13.67 11.18 13.67 22.96 14.62 23.51 15.67 22.91 15.67 11.23 14.62 10.63" style="fill:#215adc"/><polygon points="14.62 56.21 13.67 56.76 13.67 64 15.67 64 15.67 56.82 14.62 56.21" style="fill:#215adc"/><polygon points="14.62 8.32 15.67 7.71 15.67 0 13.67 0 13.67 7.77 14.62 8.32" style="fill:#215adc"/><polygon points="14.62 41.02 13.67 41.56 13.67 53.35 14.62 53.9 15.67 53.3 15.67 41.62 14.62 41.02" style="fill:#215adc"/><polygon points="14.62 25.82 13.67 26.37 13.67 38.16 14.62 38.71 15.67 38.1 15.67 26.43 14.62 25.82" style="fill:#215adc"/><polygon points="27.78 33.42 26.83 33.97 26.83 45.76 27.78 46.3 28.83 45.7 28.83 34.02 27.78 33.42" style="fill:#215adc"/><polygon points="27.78 0.72 28.83 0.11 28.83 0 26.83 0 26.83 0.17 27.78 0.72" style="fill:#215adc"/><polygon points="27.45 64 28.11 64 27.78 63.81 27.45 64" style="fill:#215adc"/><polygon points="27.78 48.61 26.83 49.16 26.83 60.95 27.78 61.5 28.83 60.89 28.83 49.22 27.78 48.61" style="fill:#215adc"/><polygon points="27.78 3.03 26.83 3.58 26.83 15.37 27.78 15.91 28.83 15.31 28.83 3.63 27.78 3.03" style="fill:#215adc"/><polygon points="27.78 18.22 26.83 18.77 26.83 30.56 27.78 31.11 28.83 30.5 28.83 18.83 27.78 18.22" style="fill:#215adc"/><polygon points="54.1 18.22 53.15 18.77 53.15 30.56 54.1 31.11 55.15 30.5 55.15 18.83 54.1 18.22" style="fill:#215adc"/><polygon points="54.1 33.42 53.15 33.97 53.15 45.76 54.1 46.3 55.15 45.7 55.15 34.02 54.1 33.42" style="fill:#215adc"/><polygon points="55.15 0.11 55.15 0 53.15 0 53.15 1.27 55.15 0.11" style="fill:#215adc"/><polygon points="54.1 48.61 53.15 49.16 53.15 60.95 55.15 62.1 55.15 49.22 54.1 48.61" style="fill:#215adc"/><polygon points="53.15 64 54.43 64 53.15 63.26 53.15 64" style="fill:#215adc"/><polygon points="53.15 3.58 53.15 15.37 54.1 15.91 55.15 15.31 55.15 2.42 53.15 3.58" style="fill:#215adc"/><polygon points="3.46 47.46 1.46 48.61 2.51 49.22 12.62 55.06 14.62 53.9 13.67 53.35 3.46 47.46" style="fill:#215adc"/><polygon points="16.62 55.06 14.62 56.21 15.67 56.82 25.78 62.65 27.78 61.5 26.83 60.95 16.62 55.06" style="fill:#215adc"/><polygon points="27.78 63.81 28.11 64 32.11 64 29.78 62.65 27.78 63.81" style="fill:#215adc"/><polygon points="1.46 46.3 0.51 45.76 0 45.46 0 47.15 1.46 46.3" style="fill:#215adc"/><polygon points="55.15 62.1 53.15 60.95 42.94 55.06 40.94 56.21 41.99 56.82 53.15 63.26 54.43 64 58 64 58 63.75 55.15 62.1" style="fill:#215adc"/><polygon points="3.46 32.26 1.46 33.42 2.51 34.02 12.62 39.86 14.62 38.71 13.67 38.16 3.46 32.26" style="fill:#215adc"/><polygon points="16.62 39.86 14.62 41.02 15.67 41.62 25.78 47.46 27.78 46.3 26.83 45.76 16.62 39.86" style="fill:#215adc"/><polygon points="29.78 47.46 27.78 48.61 28.83 49.22 38.94 55.06 40.94 53.9 39.99 53.35 29.78 47.46" style="fill:#215adc"/><polygon points="1.46 31.11 0.51 30.56 0 30.27 0 31.95 1.46 31.11" style="fill:#215adc"/><polygon points="29.78 32.26 27.78 33.42 28.83 34.02 38.94 39.86 40.94 38.71 39.99 38.16 29.78 32.26" style="fill:#215adc"/><polygon points="3.46 17.07 1.46 18.22 2.51 18.83 12.62 24.67 14.62 23.51 13.67 22.96 3.46 17.07" style="fill:#215adc"/><polygon points="42.94 39.86 40.94 41.02 41.99 41.62 52.1 47.46 54.1 46.3 53.15 45.76 42.94 39.86" style="fill:#215adc"/><polygon points="16.62 24.67 14.62 25.82 15.67 26.43 25.78 32.26 27.78 31.11 26.83 30.56 16.62 24.67" style="fill:#215adc"/><polygon points="54.1 48.61 55.15 49.22 58 50.87 58 48.56 56.1 47.46 54.1 48.61" style="fill:#215adc"/><polygon points="1.46 15.91 0.51 15.37 0 15.07 0 16.76 1.46 15.91" style="fill:#215adc"/><polygon points="54.1 33.42 55.15 34.02 58 35.67 58 33.36 56.1 32.26 54.1 33.42" style="fill:#215adc"/><polygon points="42.94 24.67 40.94 25.82 41.99 26.43 52.1 32.26 54.1 31.11 53.15 30.56 42.94 24.67" style="fill:#215adc"/><polygon points="29.78 17.07 27.78 18.22 28.83 18.83 38.94 24.67 40.94 23.51 39.99 22.96 29.78 17.07" style="fill:#215adc"/><polygon points="16.62 9.47 14.62 10.63 15.67 11.23 25.78 17.07 27.78 15.91 26.83 15.37 16.62 9.47" style="fill:#215adc"/><polygon points="2.51 3.63 12.62 9.47 14.62 8.32 13.67 7.77 2.51 1.32 0.51 0.17 0.21 0 0 0 0 2.19 0.51 2.48 2.51 3.63" style="fill:#215adc"/><polygon points="42.94 9.47 40.94 10.63 41.99 11.23 52.1 17.07 54.1 15.91 53.15 15.37 42.94 9.47" style="fill:#215adc"/><polygon points="27.78 0.72 26.83 0.17 26.53 0 22.53 0 25.78 1.87 27.78 0.72" style="fill:#215adc"/><polygon points="54.1 18.22 55.15 18.83 58 20.48 58 18.17 56.1 17.07 54.1 18.22" style="fill:#215adc"/><polygon points="29.78 1.87 27.78 3.03 28.83 3.63 38.94 9.47 40.94 8.32 39.99 7.77 29.78 1.87" style="fill:#215adc"/><polygon points="29.78 62.65 39.99 56.76 40.94 56.21 42.94 55.06 53.15 49.16 54.1 48.61 56.1 47.46 58 46.36 58 44.05 55.15 45.7 54.1 46.3 52.1 47.46 41.99 53.3 40.94 53.9 38.94 55.06 28.83 60.89 27.78 61.5 25.78 62.65 23.45 64 27.45 64 27.78 63.81 29.78 62.65" style="fill:#215adc"/><polygon points="13.67 56.76 14.62 56.21 16.62 55.06 26.83 49.16 27.78 48.61 29.78 47.46 39.99 41.56 40.94 41.02 42.94 39.86 53.15 33.97 54.1 33.42 56.1 32.26 58 31.16 58 28.86 55.15 30.5 54.1 31.11 52.1 32.26 41.99 38.1 40.94 38.71 38.94 39.86 28.83 45.7 27.78 46.3 25.78 47.46 15.67 53.3 14.62 53.9 12.62 55.06 2.51 60.89 0.51 62.05 0 62.34 0 64 1.13 64 2.51 63.2 13.67 56.76" style="fill:#215adc"/><polygon points="1.46 48.61 3.46 47.46 13.67 41.56 14.62 41.02 16.62 39.86 26.83 33.97 27.78 33.42 29.78 32.26 39.99 26.37 40.94 25.82 42.94 24.67 53.15 18.77 54.1 18.22 56.1 17.07 58 15.97 58 13.66 55.15 15.31 54.1 15.91 52.1 17.07 41.99 22.91 40.94 23.51 38.94 24.67 28.83 30.5 27.78 31.11 25.78 32.26 15.67 38.1 14.62 38.71 12.62 39.86 2.51 45.7 1.46 46.3 0 47.15 0 49.46 0.51 49.16 1.46 48.61" style="fill:#215adc"/><polygon points="1.46 33.42 3.46 32.26 13.67 26.37 14.62 25.82 16.62 24.67 26.83 18.77 27.78 18.22 29.78 17.07 39.99 11.17 40.94 10.63 42.94 9.47 53.15 3.58 55.15 2.42 58 0.78 58 0 55.34 0 55.15 0.11 53.15 1.27 41.99 7.71 40.94 8.32 38.94 9.47 28.83 15.31 27.78 15.91 25.78 17.07 15.67 22.91 14.62 23.51 12.62 24.67 2.51 30.5 1.46 31.11 0 31.95 0 34.26 0.51 33.97 1.46 33.42" style="fill:#215adc"/><polygon points="1.46 18.22 3.46 17.07 13.67 11.18 14.62 10.63 16.62 9.47 26.83 3.58 27.78 3.03 29.78 1.87 33.02 0 29.02 0 28.83 0.11 27.78 0.72 25.78 1.87 15.67 7.71 14.62 8.32 12.62 9.47 2.51 15.31 1.46 15.91 0 16.76 0 19.07 0.51 18.77 1.46 18.22" style="fill:#215adc"/></g><path d="M2.53,16.48l24.28-14a2,2,0,0,1,2,0l24.29,14a2,2,0,0,1,1,1.76V46.29a2,2,0,0,1-1,1.76l-24.29,14a2,2,0,0,1-2,0l-24.28-14a2,2,0,0,1-1-1.76v-28A2,2,0,0,1,2.53,16.48Z" style="fill:none;stroke:#215adc;stroke-width:2px;fill-rule:evenodd"/><path d="M99.51,34a1.51,1.51,0,0,1,.46,1.16V45.6a1.6,1.6,0,0,1-.47,1.18q-3.92,3.61-10.3,3.6A15.51,15.51,0,0,1,81,48.11,17.19,17.19,0,0,1,75,25.1,16.67,16.67,0,0,1,81,19a15.62,15.62,0,0,1,8.24-2.26,16.29,16.29,0,0,1,5.51.89,15.45,15.45,0,0,1,4.79,2.83,1.11,1.11,0,0,1,.47,1,1.14,1.14,0,0,1-.17.61,1,1,0,0,1-.47.4.78.78,0,0,1-.38.48,1.09,1.09,0,0,1-.63.19,1.53,1.53,0,0,1-1-.42,10.49,10.49,0,0,0-3.57-2.15,13.92,13.92,0,0,0-4.5-.68,12.24,12.24,0,0,0-6.56,1.87,13.74,13.74,0,0,0-4.82,5A13.6,13.6,0,0,0,76,33.51a14,14,0,0,0,1.76,6.9,13.55,13.55,0,0,0,4.79,5,12.46,12.46,0,0,0,6.6,1.85,13.08,13.08,0,0,0,7.57-2.38V36.48H90.21A1.65,1.65,0,0,1,89,36.05,1.38,1.38,0,0,1,88.57,35,1.31,1.31,0,0,1,89,34a1.77,1.77,0,0,1,1.18-.39h8.11A1.62,1.62,0,0,1,99.51,34Z" style="fill:#215adc"/><path d="M119.64,27.21a1.45,1.45,0,0,1,1,1.3,1.16,1.16,0,0,1,0,.38,1.31,1.31,0,0,1-.52.8,2,2,0,0,1-1,.21c-.25,0-.69,0-1.3-.09-.23,0-.57,0-1,0a7.76,7.76,0,0,0-5.16,1.68,5.44,5.44,0,0,0-2,4.37V48.39A1.47,1.47,0,0,1,108,50a1.47,1.47,0,0,1-1.6-1.6l0-19.81a1.47,1.47,0,0,1,1.6-1.6,1.64,1.64,0,0,1,1.18.43,1.58,1.58,0,0,1,.42,1.17v1.85a8.32,8.32,0,0,1,3.11-2.72,8.77,8.77,0,0,1,4.08-1A6.93,6.93,0,0,1,119.64,27.21Z" style="fill:#215adc"/><path d="M129.63,18.68a2.11,2.11,0,0,1,.67,1.64,2.2,2.2,0,0,1-.67,1.64,2.23,2.23,0,0,1-1.64.67,2.16,2.16,0,0,1-1.62-.67,2.3,2.3,0,0,1-.65-1.64,2.15,2.15,0,0,1,.68-1.64,2.29,2.29,0,0,1,1.64-.63A2.24,2.24,0,0,1,129.63,18.68Zm-2.78,8.79A1.59,1.59,0,0,1,128,27a1.51,1.51,0,0,1,1.15.46,1.62,1.62,0,0,1,.44,1.18l0,19.72a1.66,1.66,0,0,1-.44,1.18A1.53,1.53,0,0,1,128,50a1.63,1.63,0,0,1-1.18-.46,1.61,1.61,0,0,1-.46-1.18l0-19.72A1.6,1.6,0,0,1,126.85,27.47Z" style="fill:#215adc"/><path d="M160,28.64v9.88a11.75,11.75,0,0,1-1.54,6,11.08,11.08,0,0,1-4.21,4.22,12.3,12.3,0,0,1-11.9,0,11.08,11.08,0,0,1-4.2-4.23,11.9,11.9,0,0,1-1.53-6,12.14,12.14,0,0,1,1.5-6A11.1,11.1,0,0,1,148,26.82,10.86,10.86,0,0,1,153,28a10.3,10.3,0,0,1,3.74,3.18l0-12.32a1.59,1.59,0,0,1,.46-1.18,1.63,1.63,0,0,1,1.18-.46,1.5,1.5,0,0,1,1.15.47,1.61,1.61,0,0,1,.44,1.17v9.42A1,1,0,0,1,160,28.64Zm-7.37,17.51a8.39,8.39,0,0,0,3-3.15,9.08,9.08,0,0,0,1.12-4.48c0-.48,0-.83,0-1.05a.46.46,0,0,1,0-.21A8.49,8.49,0,0,0,154,31.87a8.22,8.22,0,0,0-5.66-2.11A8.6,8.6,0,0,0,144,30.89,8.17,8.17,0,0,0,140.91,34a9.56,9.56,0,0,0,0,9A8.29,8.29,0,0,0,144,46.14a8.43,8.43,0,0,0,4.35,1.16A8.31,8.31,0,0,0,152.65,46.15Z" style="fill:#215adc"/></g></g></g></svg>